<mxfile host="app.diagrams.net" modified="2020-12-01T09:31:53.591Z" agent="5.0 (Windows NT 10.0; Win64; x64) AppleWebKit/537.36 (KHTML, like Gecko) Chrome/86.0.4240.198 Safari/537.36" etag="ZH0mGRAtfb5OCN4h_Y8k" version="13.10.4" type="github">
  <diagram id="piDafpqhtRUU5qUU-vj8" name="Page-1">
    <mxGraphModel dx="1837" dy="1023" grid="1" gridSize="10" guides="1" tooltips="1" connect="1" arrows="1" fold="1" page="1" pageScale="1" pageWidth="827" pageHeight="1169" math="0" shadow="0">
      <root>
        <mxCell id="0" />
        <mxCell id="1" parent="0" />
        <mxCell id="7oahD6jrULSusDNyFYXJ-21" value="" style="rounded=0;whiteSpace=wrap;html=1;" vertex="1" parent="1">
          <mxGeometry x="10" y="840" width="180" height="310" as="geometry" />
        </mxCell>
        <mxCell id="7oahD6jrULSusDNyFYXJ-11" value="First slide" style="html=1;shadow=0;dashed=0;strokeColor=none;strokeWidth=1;fillColor=#777777;fontColor=#555555;whiteSpace=wrap;align=center;verticalAlign=middle;fontStyle=0;fontSize=40;" vertex="1" parent="1">
          <mxGeometry x="15" y="110" width="170" height="240" as="geometry" />
        </mxCell>
        <mxCell id="7oahD6jrULSusDNyFYXJ-12" value="" style="html=1;verticalLabelPosition=bottom;labelBackgroundColor=#ffffff;verticalAlign=top;shadow=0;dashed=0;strokeWidth=4;shape=mxgraph.ios7.misc.more;strokeColor=#a0a0a0;" vertex="1" parent="7oahD6jrULSusDNyFYXJ-11">
          <mxGeometry x="1" y="0.5" width="7" height="14" relative="1" as="geometry">
            <mxPoint x="-50" y="-7" as="offset" />
          </mxGeometry>
        </mxCell>
        <mxCell id="7oahD6jrULSusDNyFYXJ-13" value="" style="flipH=1;html=1;verticalLabelPosition=bottom;labelBackgroundColor=#ffffff;verticalAlign=top;shadow=0;dashed=0;strokeWidth=4;shape=mxgraph.ios7.misc.more;strokeColor=#a0a0a0;" vertex="1" parent="7oahD6jrULSusDNyFYXJ-11">
          <mxGeometry y="0.5" width="7" height="14" relative="1" as="geometry">
            <mxPoint x="43" y="-7" as="offset" />
          </mxGeometry>
        </mxCell>
        <mxCell id="7oahD6jrULSusDNyFYXJ-14" value="" style="html=1;shadow=0;strokeColor=none;fillColor=#ffffff;" vertex="1" parent="7oahD6jrULSusDNyFYXJ-11">
          <mxGeometry x="0.5" y="1" width="30" height="4" relative="1" as="geometry">
            <mxPoint x="-50" y="-20" as="offset" />
          </mxGeometry>
        </mxCell>
        <mxCell id="7oahD6jrULSusDNyFYXJ-15" value="" style="html=1;shadow=0;strokeColor=none;fillColor=#BBBBBB;" vertex="1" parent="7oahD6jrULSusDNyFYXJ-11">
          <mxGeometry x="0.5" y="1" width="30" height="4" relative="1" as="geometry">
            <mxPoint x="-15" y="-20" as="offset" />
          </mxGeometry>
        </mxCell>
        <mxCell id="7oahD6jrULSusDNyFYXJ-16" value="" style="html=1;shadow=0;strokeColor=none;fillColor=#BBBBBB;" vertex="1" parent="7oahD6jrULSusDNyFYXJ-11">
          <mxGeometry x="0.5" y="1" width="30" height="4" relative="1" as="geometry">
            <mxPoint x="20" y="-20" as="offset" />
          </mxGeometry>
        </mxCell>
        <mxCell id="7oahD6jrULSusDNyFYXJ-9" value="Button" style="labelPosition=center;verticalLabelPosition=middle;align=center;html=1;shape=mxgraph.basic.button;dx=10;" vertex="1" parent="7oahD6jrULSusDNyFYXJ-11">
          <mxGeometry x="45" y="160" width="80" height="30" as="geometry" />
        </mxCell>
        <mxCell id="7oahD6jrULSusDNyFYXJ-10" value="&lt;h1 style=&quot;text-align: center&quot;&gt;Heading&lt;/h1&gt;&lt;p&gt;Lorem ipsum dolor sit amet, consectetur adipisicing elit, sed do eiusmod tempor incididunt ut labore et dolore magna aliqua.&lt;/p&gt;" style="text;html=1;strokeColor=none;fillColor=none;spacing=5;spacingTop=-20;whiteSpace=wrap;overflow=hidden;rounded=0;" vertex="1" parent="7oahD6jrULSusDNyFYXJ-11">
          <mxGeometry x="20" y="40" width="130" height="90" as="geometry" />
        </mxCell>
        <mxCell id="7oahD6jrULSusDNyFYXJ-1" value="" style="verticalLabelPosition=bottom;verticalAlign=top;html=1;shadow=0;dashed=0;strokeWidth=1;shape=mxgraph.android.phone2;strokeColor=#c0c0c0;" vertex="1" parent="1">
          <mxGeometry width="200" height="390" as="geometry" />
        </mxCell>
        <mxCell id="7oahD6jrULSusDNyFYXJ-2" value="Netmatters" style="text;html=1;strokeColor=none;fillColor=none;align=center;verticalAlign=middle;whiteSpace=wrap;rounded=0;" vertex="1" parent="1">
          <mxGeometry x="10" y="40" width="140" height="20" as="geometry" />
        </mxCell>
        <mxCell id="7oahD6jrULSusDNyFYXJ-3" value="" style="shape=image;html=1;verticalAlign=top;verticalLabelPosition=bottom;labelBackgroundColor=#ffffff;imageAspect=0;aspect=fixed;image=https://cdn3.iconfinder.com/data/icons/mini-icon-set-general-office/91/General_-_Office_30-128.png" vertex="1" parent="1">
          <mxGeometry x="160" y="40" width="28" height="28" as="geometry" />
        </mxCell>
        <mxCell id="7oahD6jrULSusDNyFYXJ-4" value="" style="shape=image;html=1;verticalAlign=top;verticalLabelPosition=bottom;labelBackgroundColor=#ffffff;imageAspect=0;aspect=fixed;image=https://cdn4.iconfinder.com/data/icons/momenticons-basic/32x32/img-portrait-error.png" vertex="1" parent="1">
          <mxGeometry x="10" y="40" width="30" height="30" as="geometry" />
        </mxCell>
        <mxCell id="7oahD6jrULSusDNyFYXJ-5" value="" style="rounded=0;whiteSpace=wrap;html=1;" vertex="1" parent="1">
          <mxGeometry x="20" y="80" width="160" height="20" as="geometry" />
        </mxCell>
        <mxCell id="7oahD6jrULSusDNyFYXJ-6" value="" style="shape=image;html=1;verticalAlign=top;verticalLabelPosition=bottom;labelBackgroundColor=#ffffff;imageAspect=0;aspect=fixed;image=https://cdn4.iconfinder.com/data/icons/ui-standard/96/Search-128.png" vertex="1" parent="1">
          <mxGeometry x="160" y="82.5" width="15" height="15" as="geometry" />
        </mxCell>
        <mxCell id="7oahD6jrULSusDNyFYXJ-7" value="Search..." style="text;html=1;strokeColor=none;fillColor=none;align=center;verticalAlign=middle;whiteSpace=wrap;rounded=0;" vertex="1" parent="1">
          <mxGeometry x="30" y="80" width="40" height="20" as="geometry" />
        </mxCell>
        <mxCell id="7oahD6jrULSusDNyFYXJ-17" value="" style="verticalLabelPosition=bottom;verticalAlign=top;html=1;shadow=0;dashed=0;strokeWidth=1;shape=mxgraph.android.phone2;strokeColor=#c0c0c0;" vertex="1" parent="1">
          <mxGeometry y="400" width="200" height="390" as="geometry" />
        </mxCell>
        <mxCell id="7oahD6jrULSusDNyFYXJ-18" value="Normal" style="rounded=1;html=1;shadow=0;dashed=0;whiteSpace=wrap;fontSize=10;fillColor=#E6E6E6;align=center;strokeColor=#E6E6E6;fontColor=#333333;" vertex="1" parent="1">
          <mxGeometry x="10" y="440" width="180" height="130" as="geometry" />
        </mxCell>
        <mxCell id="7oahD6jrULSusDNyFYXJ-19" value="Normal" style="rounded=1;html=1;shadow=0;dashed=0;whiteSpace=wrap;fontSize=10;fillColor=#E6E6E6;align=center;strokeColor=#E6E6E6;fontColor=#333333;" vertex="1" parent="1">
          <mxGeometry x="10" y="585" width="180" height="150" as="geometry" />
        </mxCell>
        <mxCell id="7oahD6jrULSusDNyFYXJ-20" value="" style="verticalLabelPosition=bottom;verticalAlign=top;html=1;shadow=0;dashed=0;strokeWidth=1;shape=mxgraph.android.phone2;strokeColor=#c0c0c0;" vertex="1" parent="1">
          <mxGeometry y="800" width="200" height="390" as="geometry" />
        </mxCell>
        <mxCell id="7oahD6jrULSusDNyFYXJ-23" value="&lt;h1&gt;Heading&lt;/h1&gt;&lt;p&gt;Lorem ipsum dolor sit amet, consectetur adipisicing elit, sed do eiusmod tempor incididunt ut labore et dolore magna aliqua.&lt;/p&gt;Lorem ipsum dolor sit amet, consectetur adipisicing elit, sed do eiusmod tempor incididunt ut labore et dolore magna aliqua." style="text;html=1;strokeColor=none;fillColor=none;spacing=5;spacingTop=-20;whiteSpace=wrap;overflow=hidden;rounded=0;" vertex="1" parent="1">
          <mxGeometry x="15" y="850" width="155" height="260" as="geometry" />
        </mxCell>
        <mxCell id="7oahD6jrULSusDNyFYXJ-24" value="Button" style="labelPosition=center;verticalLabelPosition=middle;align=center;html=1;shape=mxgraph.basic.shaded_button;dx=10;fillColor=#E6E6E6;strokeColor=none;" vertex="1" parent="1">
          <mxGeometry x="15" y="1090" width="100" height="30" as="geometry" />
        </mxCell>
        <mxCell id="7oahD6jrULSusDNyFYXJ-25" value="" style="verticalLabelPosition=bottom;verticalAlign=top;html=1;shadow=0;dashed=0;strokeWidth=1;shape=mxgraph.android.phone2;strokeColor=#c0c0c0;" vertex="1" parent="1">
          <mxGeometry y="1200" width="200" height="390" as="geometry" />
        </mxCell>
        <mxCell id="7oahD6jrULSusDNyFYXJ-26" value="&lt;h1&gt;Address&lt;/h1&gt;&lt;p&gt;Lorem ipsum dolor sit amet&lt;/p&gt;" style="text;html=1;strokeColor=none;fillColor=none;spacing=5;spacingTop=-20;whiteSpace=wrap;overflow=hidden;rounded=0;" vertex="1" parent="1">
          <mxGeometry x="15" y="1250" width="165" height="80" as="geometry" />
        </mxCell>
        <mxCell id="7oahD6jrULSusDNyFYXJ-27" value="&lt;h1&gt;About&lt;/h1&gt;&lt;p&gt;Lorem ipsum dolor sit amet, consectetur adipisicing elit, sed do eiusmod tempor incididunt ut labore et dolore magna aliqua.&lt;/p&gt;" style="text;html=1;strokeColor=none;fillColor=none;spacing=5;spacingTop=-20;whiteSpace=wrap;overflow=hidden;rounded=0;" vertex="1" parent="1">
          <mxGeometry x="10" y="1320" width="82.5" height="120" as="geometry" />
        </mxCell>
        <mxCell id="7oahD6jrULSusDNyFYXJ-30" value="Button" style="labelPosition=center;verticalLabelPosition=middle;align=center;html=1;shape=mxgraph.basic.button;dx=10;" vertex="1" parent="1">
          <mxGeometry x="15" y="1450" width="85" height="40" as="geometry" />
        </mxCell>
        <mxCell id="7oahD6jrULSusDNyFYXJ-31" value="Button" style="labelPosition=center;verticalLabelPosition=middle;align=center;html=1;shape=mxgraph.basic.button;dx=10;" vertex="1" parent="1">
          <mxGeometry x="103" y="1450" width="85" height="40" as="geometry" />
        </mxCell>
        <mxCell id="7oahD6jrULSusDNyFYXJ-32" value="Button" style="labelPosition=center;verticalLabelPosition=middle;align=center;html=1;shape=mxgraph.basic.button;dx=10;" vertex="1" parent="1">
          <mxGeometry x="15" y="1500" width="85" height="40" as="geometry" />
        </mxCell>
        <mxCell id="7oahD6jrULSusDNyFYXJ-33" value="" style="shape=image;html=1;verticalAlign=top;verticalLabelPosition=bottom;labelBackgroundColor=#ffffff;imageAspect=0;aspect=fixed;image=https://cdn2.iconfinder.com/data/icons/social-media-and-payment/64/-04-128.png" vertex="1" parent="1">
          <mxGeometry x="41.25" y="1460" width="20" height="20" as="geometry" />
        </mxCell>
        <mxCell id="7oahD6jrULSusDNyFYXJ-34" value="" style="dashed=0;outlineConnect=0;html=1;align=center;labelPosition=center;verticalLabelPosition=bottom;verticalAlign=top;shape=mxgraph.weblogos.twitter;fillColor=#1DA1F2;strokeColor=none" vertex="1" parent="1">
          <mxGeometry x="135.5" y="1460" width="20" height="20" as="geometry" />
        </mxCell>
        <mxCell id="7oahD6jrULSusDNyFYXJ-35" value="" style="shape=image;html=1;verticalAlign=top;verticalLabelPosition=bottom;labelBackgroundColor=#ffffff;imageAspect=0;aspect=fixed;image=https://cdn2.iconfinder.com/data/icons/social-media-and-payment/64/-15-128.png" vertex="1" parent="1">
          <mxGeometry x="47.5" y="1510" width="20" height="20" as="geometry" />
        </mxCell>
      </root>
    </mxGraphModel>
  </diagram>
</mxfile>
